<?xml version="1.0" encoding="UTF-8"?>
<svg width="39px" height="39px" viewBox="0 0 39 39" version="1.1" xmlns="http://www.w3.org/2000/svg" xmlns:xlink="http://www.w3.org/1999/xlink">
    <title>behace</title>
    <g id="behace" stroke="none" stroke-width="1" fill="none" fill-rule="evenodd">
        <g>
            <path d="M19.031,38.061 L19.031,38.061 C8.521,38.061 -3.90798505e-14,29.541 -3.90798505e-14,19.031 C-3.90798505e-14,8.52 8.521,-1.52766688e-13 19.031,-1.52766688e-13 C29.541,-1.52766688e-13 38.061,8.52 38.061,19.031 C38.061,29.541 29.541,38.061 19.031,38.061" id="Fill-13" fill="#222221"></path>
            <path d="M10.9602,23.2114 L10.9602,19.6594 L14.2392,19.6594 C14.8132,19.6654 15.2552,19.7404 15.5722,19.8854 C16.1372,20.1444 16.4202,20.6194 16.4202,21.3134 C16.4202,22.1324 16.1282,22.6874 15.5452,22.9774 C15.2232,23.1334 14.7732,23.2114 14.1962,23.2114 L10.9602,23.2114 Z M10.9602,14.5144 L13.8592,14.5144 C14.4972,14.5144 15.0222,14.5844 15.4342,14.7234 C15.9122,14.9214 16.1502,15.3314 16.1502,15.9524 C16.1502,16.5124 15.9692,16.9034 15.6082,17.1234 C15.2482,17.3434 14.7772,17.4534 14.1992,17.4534 L10.9602,17.4534 L10.9602,14.5144 Z M16.1902,25.3444 C16.7682,25.2254 17.2702,25.0024 17.6962,24.6764 C18.0722,24.3934 18.3872,24.0434 18.6392,23.6284 C19.0352,23.0004 19.2322,22.2934 19.2322,21.5024 C19.2322,20.7374 19.0592,20.0864 18.7132,19.5504 C18.3672,19.0144 17.8542,18.6224 17.1742,18.3744 C17.6222,18.1464 17.9602,17.8934 18.1912,17.6154 C18.6022,17.1224 18.8082,16.4674 18.8082,15.6534 C18.8082,14.8644 18.6042,14.1864 18.1962,13.6194 C17.5192,12.6974 16.3672,12.2244 14.7432,12.2004 L8.3022,12.2004 L8.3022,25.5254 L14.3072,25.5254 C14.9832,25.5254 15.6122,25.4654 16.1902,25.3444 L16.1902,25.3444 Z" id="Fill-14" fill="#FFFFFF"></path>
            <path d="M23.3298,18.0971 C23.6948,17.7221 24.2068,17.5351 24.8678,17.5351 C25.4758,17.5351 25.9858,17.7121 26.3958,18.0651 C26.8068,18.4191 27.0358,18.9391 27.0828,19.6221 L22.6428,19.6221 C22.7368,18.9811 22.9658,18.4721 23.3298,18.0971 M21.4888,24.6481 C22.4918,25.4571 23.6488,25.8611 24.9598,25.8611 C26.5488,25.8611 27.7848,25.3821 28.6668,24.4231 C29.2348,23.8201 29.5538,23.2261 29.6228,22.6421 L26.9918,22.6421 C26.8388,22.9311 26.6618,23.1571 26.4618,23.3201 C26.0948,23.6211 25.6178,23.7721 25.0308,23.7721 C24.4768,23.7721 24.0038,23.6481 23.6108,23.4011 C22.9638,23.0031 22.6198,22.3101 22.5798,21.3211 L29.7568,21.3211 C29.7688,20.4711 29.7408,19.8191 29.6718,19.3661 C29.5528,18.5941 29.2898,17.9141 28.8868,17.3291 C28.4398,16.6651 27.8718,16.1791 27.1838,15.8711 C26.4968,15.5641 25.7248,15.4101 24.8668,15.4101 C23.4228,15.4101 22.2478,15.8661 21.3428,16.7761 C20.4378,17.6861 19.9858,18.9951 19.9858,20.7021 C19.9858,22.5241 20.4868,23.8391 21.4888,24.6481" id="Fill-15" fill="#FFFFFF"></path>
            <polygon id="Fill-16" fill="#FFFFFF" points="21.8032 14.311 27.5942 14.311 27.5942 12.966 21.8032 12.966"></polygon>
        </g>
    </g>
</svg>