<?xml version="1.0" encoding="UTF-8"?>
<svg width="39px" height="39px" viewBox="0 0 39 39" version="1.1" xmlns="http://www.w3.org/2000/svg" xmlns:xlink="http://www.w3.org/1999/xlink">
    <title>facebook</title>
    <g id="facebook" stroke="none" stroke-width="1" fill="none" fill-rule="evenodd">
        <g>
            <path d="M19.031,38.061 L19.031,38.061 C8.521,38.061 -3.90798505e-14,29.54 -3.90798505e-14,19.03 C-3.90798505e-14,8.52 8.521,-1.56319402e-13 19.031,-1.56319402e-13 C29.541,-1.56319402e-13 38.061,8.52 38.061,19.03 C38.061,29.54 29.541,38.061 19.031,38.061" id="Fill-7" fill="#222221"></path>
            <path d="M16.1311,30.5332 L20.7631,30.5332 L20.7631,18.9322 L23.9961,18.9322 L24.3401,15.0482 L20.7631,15.0482 L20.7631,12.8362 C20.7631,11.9202 20.9471,11.5582 21.8331,11.5582 L24.3401,11.5582 L24.3401,7.5272 L21.1321,7.5272 C17.6851,7.5272 16.1311,9.0462 16.1311,11.9512 L16.1311,15.0482 L13.7211,15.0482 L13.7211,18.9812 L16.1311,18.9812 L16.1311,30.5332 Z" id="Fill-8" fill="#FFFFFF"></path>
        </g>
    </g>
</svg>