<?xml version="1.0" encoding="UTF-8"?>
<svg width="37px" height="37px" viewBox="0 0 37 37" version="1.1" xmlns="http://www.w3.org/2000/svg" xmlns:xlink="http://www.w3.org/1999/xlink">
    <title>fechar</title>
    <g id="fechar" stroke="none" stroke-width="1" fill="none" fill-rule="evenodd">
        <g fill="#000000" fill-rule="nonzero">
            <rect id="Rectangle" opacity="0" transform="translate(18.500000, 18.500000) rotate(180.000000) translate(-18.500000, -18.500000) " x="0" y="0" width="37" height="37"></rect>
            <path d="M20.7303446,18.49865 L27.5321048,11.7117435 C28.1523655,11.0913947 28.1523655,10.0856105 27.5321048,9.46526163 C26.9118441,8.84491279 25.9062028,8.84491279 25.2859422,9.46526163 L18.5,16.2679884 L11.7140578,9.46526163 C11.0937972,8.84491281 10.0881559,8.84491281 9.4678952,9.46526165 C8.84763451,10.0856105 8.8476345,11.0913947 9.46789518,11.7117435 L16.2696554,18.49865 L9.46789518,25.2855565 C9.16843954,25.5826088 9,25.986969 9,26.4087974 C9,26.8306258 9.16843954,27.234986 9.46789518,27.5320383 C9.76490527,27.8315365 10.169208,28 10.5909765,28 C11.012745,28 11.4170478,27.8315365 11.7140578,27.5320383 L18.5,20.7293116 L25.2859422,27.5320383 C25.5829522,27.8315365 25.987255,28 26.4090235,28 C26.830792,28 27.2350947,27.8315365 27.5321048,27.5320383 C27.8315605,27.234986 28,26.8306258 28,26.4087974 C28,25.986969 27.8315605,25.5826088 27.5321048,25.2855565 L20.7303446,18.49865 Z" id="Path"></path>
        </g>
    </g>
</svg>