<?xml version="1.0" encoding="UTF-8"?>
<svg width="39px" height="39px" viewBox="0 0 39 39" version="1.1" xmlns="http://www.w3.org/2000/svg" xmlns:xlink="http://www.w3.org/1999/xlink">
    <title>linkedin</title>
    <g id="linkedin" stroke="none" stroke-width="1" fill="none" fill-rule="evenodd">
        <g>
            <path d="M19.03,38.061 L19.03,38.061 C8.52,38.061 -4.26325641e-14,29.541 -4.26325641e-14,19.031 C-4.26325641e-14,8.52 8.52,-1.52766688e-13 19.03,-1.52766688e-13 C29.54,-1.52766688e-13 38.061,8.52 38.061,19.031 C38.061,29.541 29.54,38.061 19.03,38.061" id="Fill-1" fill="#222221"></path>
            <polygon id="Fill-3" fill="#FFFFFF" points="10.4007 27.512 14.3397 27.512 14.3397 14.788 10.4007 14.788"></polygon>
            <path d="M12.3513,13.1225 C13.6383,13.1225 14.6803,12.0705 14.6803,10.7735 C14.6803,9.4775 13.6383,8.4265 12.3513,8.4265 C11.0643,8.4265 10.0223,9.4775 10.0223,10.7735 C10.0223,12.0705 11.0643,13.1225 12.3513,13.1225" id="Fill-5" fill="#FFFFFF"></path>
            <path d="M20.6355,20.833 C20.6355,19.044 21.4585,17.979 23.0355,17.979 C24.4835,17.979 25.1795,19.001 25.1795,20.833 L25.1795,27.512 L29.0995,27.512 L29.0995,19.456 C29.0995,16.048 27.1675,14.4 24.4695,14.4 C21.7715,14.4 20.6355,16.502 20.6355,16.502 L20.6355,14.789 L16.8575,14.789 L16.8575,27.512 L20.6355,27.512 L20.6355,20.833 Z" id="Fill-6" fill="#FFFFFF"></path>
        </g>
    </g>
</svg>