<?xml version="1.0" encoding="UTF-8"?>
<svg width="32px" height="37px" viewBox="0 0 32 37" version="1.1" xmlns="http://www.w3.org/2000/svg" xmlns:xlink="http://www.w3.org/1999/xlink">
    <title>logo</title>
    <g id="logo" stroke="none" stroke-width="1" fill="none" fill-rule="evenodd">
        <g fill="#000" fill-rule="nonzero" id="Path">
            <path d="M10.8812318,27 C10.0060363,27.4940308 9.02534197,27.8222168 8.49338957,28.4038417 C7.80838941,29.1536473 7.42948477,30.0926562 7.03720702,30.9814445 C6.91833498,31.2500664 7.10258665,31.6786936 7.33141533,31.9309647 C7.43988607,32.0512606 8.01492959,31.9963683 8.31953921,31.9029345 C9.07437669,31.672854 9.79652437,31.3738661 10.6568608,31.0573594 C10.503813,30.3098896 10.3329345,29.4794974 10.1665136,28.6642882 C10.9867307,28.4155209 11.1486939,28.0698161 10.8812318,27 Z"></path>
            <path d="M0,0 L0,36.9986429 L0.329456363,36.9986429 C0.640992505,36.4395379 1.03799431,35.9252155 1.52321875,35.4773886 C2.60394589,34.481313 3.82252089,33.6860811 4.76815715,32.5665138 C4.98457827,32.516303 5.12931851,32.3710985 5.20237788,32.1960389 C5.20513483,32.1973959 5.20651331,32.20011 5.20927027,32.2014671 C5.75928319,31.0791858 6.26656328,29.9487621 6.24312915,28.6636347 C6.23210132,28.086888 6.43335918,27.6268476 6.96958732,27.3133688 C7.4837598,27.0134605 7.71120875,26.522208 7.78564659,25.9210343 C7.05918842,26.3837887 6.3740846,26.8180451 5.69035927,27.2536585 C5.47807358,26.7814047 5.25751702,27.2740143 5.01766176,27.3364387 C4.97079349,27.2618008 4.92392522,27.185806 4.87705695,27.1098111 C4.67166365,27.2319457 4.49246145,27.3377957 4.40837426,27.3880066 C4.19746705,27.3025124 4.01275093,27.1695214 3.95071939,27.21159 C3.0974412,27.7883367 2.57913328,26.9266092 2.00017231,26.6714836 C1.53011114,26.4638548 1.30128371,25.7296901 0.958042561,25.2180818 C1.37296459,25.2180818 1.71896269,25.1312305 1.9946584,25.2330094 C3.13466012,25.6564093 4.14094943,25.1827985 5.15964504,24.825894 C5.30576376,24.7743261 5.3677953,24.4907024 5.46842423,24.3142857 C5.78823124,23.9818082 6.1052813,23.6466165 6.37546308,23.2788557 C6.62496769,22.9395929 6.84138882,22.5759032 7.0412682,22.2054282 C7.59955199,21.1686411 8.41561127,20.4561893 9.56112691,20.0843572 C9.93469458,19.9622226 10.3385888,19.7573079 10.5880934,19.4709701 C11.0871026,18.8982945 11.6853623,18.6173849 12.4228483,18.540033 C12.7743603,18.5033926 13.1203584,18.4056849 13.4732489,18.3690446 C14.1004566,18.3052632 14.5746532,18.0012837 14.9413285,17.5181735 C15.487206,16.8002934 16.0854657,16.1950486 17.0724563,16.0701999 C17.4859998,16.0186319 17.9519256,15.8272877 17.8195916,15.2166147 C17.8099423,15.1745461 17.8871371,15.0958372 17.9422762,15.0605538 C18.4233652,14.7525032 18.9072112,14.4444526 19.3951926,14.1472584 C19.81425,13.8921328 20.200224,13.6261507 20.0527268,13.0399046 C19.8376842,13.0127636 19.6391833,12.9883367 19.3786508,12.9571245 C19.4903076,12.7766367 19.5413113,12.6422886 19.6350478,12.5513662 C20.3463427,11.8660554 21.0493668,11.1821016 21.3857155,10.2158812 C21.447747,10.0381075 21.6490049,9.87390427 21.8268286,9.77348249 C22.5229603,9.38265175 22.9778582,8.80726206 23.2811235,8.09073904 C23.3693461,7.88311021 23.5182218,7.70126536 23.6326355,7.50584999 C23.8270009,7.17472951 24.0365297,7.19779938 24.3149823,7.42849807 C24.7326613,7.77454612 24.7119841,8.44628645 25.2978375,8.67291399 C25.3515982,8.69326976 25.3254071,8.96060884 25.3061084,9.10852742 C25.2371845,9.6174216 25.1544757,10.1249587 25.077281,10.6324959 C25.0235203,10.9907574 25.0069785,11.3585182 24.9104851,11.7045663 C24.7878005,12.1401797 24.5396743,12.5540803 24.8925648,12.9924078 C24.9228914,13.0304053 24.8898079,13.1118284 24.8953218,13.1728957 C24.9091066,13.3370988 24.8622383,13.5677975 24.9545964,13.6532918 C25.4536056,14.1228315 25.1875592,14.6086558 25.0593607,15.1107647 C25.0000862,15.3428205 25.0262772,15.5993031 25.0290342,15.8435723 C25.0304127,15.9358518 25.0979581,16.0308454 25.0910657,16.1204108 C25.0593607,16.5818082 25.0124925,17.0418485 24.9683811,17.5439575 C24.7395537,17.6565927 24.7395537,17.6565927 24.6334109,18.7843022 C24.2750065,18.9498625 24.0875334,19.1683477 24.1275093,19.5836054 C24.1605927,19.9364387 24.1054536,20.2974143 24.0889119,20.6543187 C24.0379082,20.6244636 23.9882829,20.5946085 23.9372792,20.5647533 C23.8338933,20.6285348 23.7305075,20.6936732 23.6271216,20.7560976 C23.4630826,20.8551623 23.2990437,20.95287 23.1363832,21.0519347 L23.0274834,20.9352283 C22.9061773,21.2147809 22.8344964,21.6938199 22.6552942,21.7358885 C22.0997674,21.8675225 22.37822,22.2461397 22.3106746,22.5134788 C22.2651848,22.6966807 22.2982683,23.0359435 22.2252089,23.0562993 C21.672439,23.208289 21.833721,23.684614 21.7124149,24.029305 C21.6793314,24.1215844 21.643491,24.216578 21.5869734,24.295287 C21.4670457,24.4622043 21.2561385,24.6019806 21.2189196,24.7811113 C21.0052554,25.8165414 20.9418454,26.8601137 21.2451107,27.8941867 C21.2823296,28.0217495 21.3733092,28.2361636 21.4394762,28.2361636 C21.8240717,28.2348065 22.1700698,28.3935815 22.6015336,28.24702 C24.3742569,27.6444893 26.1676574,27.0962406 27.9748428,26.602274 C28.7550616,26.3892169 29.5821487,26.3267926 30.3926941,26.2480836 C30.942707,26.1951586 31.360386,26.5167798 31.6085121,26.9591784 C31.841475,27.3744361 31.3438442,27.5399963 31.1660205,27.8100495 C31.0516068,27.9837521 30.8572413,28.1086008 30.752477,28.2863745 C30.6339278,28.4885751 30.4836736,28.7355584 30.5071078,28.9459013 C30.5801671,29.6040712 30.2245197,29.9528333 29.7517016,30.3314506 C29.3271302,30.6707134 28.9011803,31.1008986 28.6861377,31.5812947 C28.2946498,32.4552357 28.0423882,33.391601 27.765314,34.3116816 C27.6688205,34.6305887 27.3145516,36.2115533 27.1987594,36.8303686 C27.1629189,36.8832936 27.1339709,36.9389327 27.1160507,37 L32,37 L32,0 L0,0 Z"></path>
            <path d="M17.2498423,24.0626632 C16.5619384,24.1827676 15.9144994,24.7845953 15.3355395,24 C14.5884945,24.3577023 14.404846,25.0013055 14.3130217,25.6527415 C14.1464929,26.8498695 13.4010043,27.6984334 12.2244084,28.3355091 C11.9084706,28.5065274 11.620547,28.727154 11.3606376,28.9569191 C11.0275801,29.2506527 10.8392625,30.2349869 11.1816581,30.4686684 C11.5940892,30.7506527 12.1854998,31 12.6990932,31 C14.3674937,31 15.5907799,29.9386423 17.1113277,29.5496084 C17.4039203,29.4751958 17.6607171,29.3002611 18,29.1422977 C17.3058707,28.4177546 17.3261032,27.6292428 17.3961386,26.7845953 C17.4708431,25.8929504 17.3089834,24.9882507 17.2498423,24.0626632 Z"></path>
            <path d="M19.5207603,28.9841669 C19.707609,28.8774261 19.8850763,28.7317563 20,28.650131 C19.9124391,27.0979944 19.8280053,25.599856 19.738099,24 C19.6653922,24.261201 19.6177027,24.4307305 19.5801766,24.5650983 C19.4292904,24.5437501 19.2924764,24.5249135 19.1181364,24.499798 C19.0759195,25.7241777 19.0196303,26.9435342 19.0000855,28.1654022 C18.9938311,28.6174809 19.3323479,29.0934192 19.5207603,28.9841669 Z"></path>
        </g>
    </g>
</svg>